<mxfile host="app.diagrams.net" modified="2024-02-15T06:56:18.562Z" agent="Mozilla/5.0 (Windows NT 10.0; Win64; x64) AppleWebKit/537.36 (KHTML, like Gecko) Chrome/121.0.0.0 Safari/537.36" etag="62XLkYjhM3eh1UFqXy8D" version="23.1.2" type="github">
  <diagram name="Page-1" id="zfi_z39KRMZiAdqfa__p">
    <mxGraphModel dx="1098" dy="506" grid="1" gridSize="10" guides="1" tooltips="1" connect="1" arrows="1" fold="1" page="1" pageScale="1" pageWidth="850" pageHeight="1100" math="0" shadow="0">
      <root>
        <mxCell id="0" />
        <mxCell id="1" parent="0" />
        <mxCell id="br7aP03rx6v40O2pfSzx-1" value="Agile System &lt;br&gt;Development Cycle" style="ellipse;shape=cloud;whiteSpace=wrap;html=1;" vertex="1" parent="1">
          <mxGeometry x="360" y="250" width="240" height="160" as="geometry" />
        </mxCell>
        <mxCell id="br7aP03rx6v40O2pfSzx-2" value="Initiation" style="ellipse;whiteSpace=wrap;html=1;aspect=fixed;" vertex="1" parent="1">
          <mxGeometry x="260" y="220" width="90" height="90" as="geometry" />
        </mxCell>
        <mxCell id="br7aP03rx6v40O2pfSzx-3" value="Planning" style="ellipse;whiteSpace=wrap;html=1;aspect=fixed;" vertex="1" parent="1">
          <mxGeometry x="480" y="150" width="80" height="80" as="geometry" />
        </mxCell>
        <mxCell id="br7aP03rx6v40O2pfSzx-4" value="Development" style="ellipse;whiteSpace=wrap;html=1;aspect=fixed;" vertex="1" parent="1">
          <mxGeometry x="620" y="280" width="80" height="80" as="geometry" />
        </mxCell>
        <mxCell id="br7aP03rx6v40O2pfSzx-5" value="Release" style="ellipse;whiteSpace=wrap;html=1;aspect=fixed;" vertex="1" parent="1">
          <mxGeometry x="490" y="420" width="80" height="80" as="geometry" />
        </mxCell>
        <mxCell id="br7aP03rx6v40O2pfSzx-6" value="Retirement" style="ellipse;whiteSpace=wrap;html=1;aspect=fixed;" vertex="1" parent="1">
          <mxGeometry x="310.37" y="400" width="80" height="80" as="geometry" />
        </mxCell>
        <mxCell id="br7aP03rx6v40O2pfSzx-12" value="BRD/Scope Documentation" style="text;html=1;strokeColor=none;fillColor=none;align=center;verticalAlign=middle;whiteSpace=wrap;rounded=0;" vertex="1" parent="1">
          <mxGeometry x="170" y="200" width="130" height="30" as="geometry" />
        </mxCell>
        <mxCell id="br7aP03rx6v40O2pfSzx-13" value="SRS / Use Cases" style="text;html=1;strokeColor=none;fillColor=none;align=center;verticalAlign=middle;whiteSpace=wrap;rounded=0;" vertex="1" parent="1">
          <mxGeometry x="490" y="130" width="130" height="30" as="geometry" />
        </mxCell>
        <mxCell id="br7aP03rx6v40O2pfSzx-15" value="Task and Issues" style="text;html=1;strokeColor=none;fillColor=none;align=center;verticalAlign=middle;whiteSpace=wrap;rounded=0;" vertex="1" parent="1">
          <mxGeometry x="670" y="340.7" width="130" height="30" as="geometry" />
        </mxCell>
        <mxCell id="br7aP03rx6v40O2pfSzx-17" value="QA / Security Assessment /UAT /Deployment" style="text;html=1;strokeColor=none;fillColor=none;align=center;verticalAlign=middle;whiteSpace=wrap;rounded=0;" vertex="1" parent="1">
          <mxGeometry x="510" y="500" width="200" height="30" as="geometry" />
        </mxCell>
        <mxCell id="br7aP03rx6v40O2pfSzx-18" value="Backup / Decommission / Notifications" style="text;html=1;strokeColor=none;fillColor=none;align=center;verticalAlign=middle;whiteSpace=wrap;rounded=0;" vertex="1" parent="1">
          <mxGeometry x="230" y="480" width="200" height="30" as="geometry" />
        </mxCell>
        <mxCell id="br7aP03rx6v40O2pfSzx-19" value="" style="html=1;shadow=0;dashed=0;align=center;verticalAlign=middle;shape=mxgraph.arrows2.bendArrow;dy=15;dx=38;notch=0;arrowHead=55;rounded=1;" vertex="1" parent="1">
          <mxGeometry x="280" y="160" width="200" height="60" as="geometry" />
        </mxCell>
        <mxCell id="br7aP03rx6v40O2pfSzx-21" value="" style="html=1;shadow=0;dashed=0;align=center;verticalAlign=middle;shape=mxgraph.arrows2.bendArrow;dy=15;dx=38;notch=0;arrowHead=55;rounded=1;rotation=90;" vertex="1" parent="1">
          <mxGeometry x="572.77" y="160.72" width="118.79" height="133.26" as="geometry" />
        </mxCell>
        <mxCell id="br7aP03rx6v40O2pfSzx-22" value="" style="html=1;shadow=0;dashed=0;align=center;verticalAlign=middle;shape=mxgraph.arrows2.bendArrow;dy=15;dx=38;notch=0;arrowHead=55;rounded=1;rotation=-180;" vertex="1" parent="1">
          <mxGeometry x="568.79" y="363.48" width="108.79" height="123.26" as="geometry" />
        </mxCell>
        <mxCell id="br7aP03rx6v40O2pfSzx-23" value="" style="html=1;shadow=0;dashed=0;align=center;verticalAlign=middle;shape=mxgraph.arrows2.bendArrow;dy=15;dx=38;notch=0;arrowHead=55;rounded=1;rotation=-45;" vertex="1" parent="1">
          <mxGeometry x="219.57" y="273.66" width="96.28" height="164.07" as="geometry" />
        </mxCell>
        <mxCell id="br7aP03rx6v40O2pfSzx-25" value="" style="html=1;shadow=0;dashed=0;align=center;verticalAlign=middle;shape=mxgraph.arrows2.arrow;dy=0.6;dx=40;flipH=1;notch=0;" vertex="1" parent="1">
          <mxGeometry x="390" y="435" width="100" height="50" as="geometry" />
        </mxCell>
        <mxCell id="br7aP03rx6v40O2pfSzx-27" value="" style="html=1;outlineConnect=0;whiteSpace=wrap;fillColor=#ffff99;verticalLabelPosition=bottom;verticalAlign=top;align=center;shape=mxgraph.archimate3.actor;" vertex="1" parent="1">
          <mxGeometry x="516.75" y="90" width="26.5" height="40" as="geometry" />
        </mxCell>
        <mxCell id="br7aP03rx6v40O2pfSzx-28" value="" style="html=1;outlineConnect=0;whiteSpace=wrap;fillColor=#ffff99;verticalLabelPosition=bottom;verticalAlign=top;align=center;shape=mxgraph.archimate3.actor;" vertex="1" parent="1">
          <mxGeometry x="219.57" y="240" width="26.5" height="40" as="geometry" />
        </mxCell>
        <mxCell id="br7aP03rx6v40O2pfSzx-29" value="" style="html=1;outlineConnect=0;whiteSpace=wrap;fillColor=#ffff99;verticalLabelPosition=bottom;verticalAlign=top;align=center;shape=mxgraph.archimate3.actor;" vertex="1" parent="1">
          <mxGeometry x="710" y="280" width="26.5" height="40" as="geometry" />
        </mxCell>
        <mxCell id="br7aP03rx6v40O2pfSzx-31" value="" style="html=1;outlineConnect=0;whiteSpace=wrap;fillColor=#ffff99;verticalLabelPosition=bottom;verticalAlign=top;align=center;shape=mxgraph.archimate3.actor;" vertex="1" parent="1">
          <mxGeometry x="490" y="500" width="26.5" height="40" as="geometry" />
        </mxCell>
        <mxCell id="br7aP03rx6v40O2pfSzx-32" value="" style="html=1;outlineConnect=0;whiteSpace=wrap;fillColor=#ffff99;verticalLabelPosition=bottom;verticalAlign=top;align=center;shape=mxgraph.archimate3.actor;" vertex="1" parent="1">
          <mxGeometry x="250" y="440" width="26.5" height="40" as="geometry" />
        </mxCell>
      </root>
    </mxGraphModel>
  </diagram>
</mxfile>
